<svg width="19" height="19" viewBox="0 0 19 19" fill="none" xmlns="http://www.w3.org/2000/svg">
<path d="M1.02031 18V16.416C1.38831 16.4 1.69231 16.352 1.93231 16.272C2.18831 16.192 2.38031 16.008 2.50831 15.72C2.65231 15.432 2.72431 14.968 2.72431 14.328V5.136C2.72431 4.704 2.73231 4.288 2.74831 3.888C2.78031 3.488 2.80431 3.184 2.82031 2.976C2.56431 2.992 2.24431 3.008 1.86031 3.024C1.47631 3.024 1.19631 3.032 1.02031 3.048V1.2H7.90831V2.784C7.55631 2.8 7.25231 2.848 6.99631 2.928C6.74031 3.008 6.54031 3.192 6.39631 3.48C6.26831 3.752 6.20431 4.216 6.20431 4.872V8.616H12.8043V5.136C12.8043 4.704 12.8123 4.288 12.8283 3.888C12.8443 3.488 12.8683 3.184 12.9003 2.976C12.6443 2.992 12.3243 3.008 11.9403 3.024C11.5563 3.024 11.2763 3.032 11.1003 3.048V1.2H17.9883V2.784C17.6363 2.8 17.3323 2.848 17.0763 2.928C16.8203 3.008 16.6203 3.192 16.4763 3.48C16.3483 3.752 16.2843 4.216 16.2843 4.872V14.064C16.2843 14.496 16.2763 14.912 16.2603 15.312C16.2443 15.712 16.2203 16.016 16.1883 16.224C16.4443 16.192 16.7643 16.176 17.1483 16.176C17.5483 16.16 17.8283 16.152 17.9883 16.152V18H11.1003V16.416C11.4683 16.4 11.7723 16.352 12.0123 16.272C12.2683 16.192 12.4603 16.008 12.5883 15.72C12.7323 15.432 12.8043 14.968 12.8043 14.328V10.44L6.20431 10.512V14.064C6.20431 14.496 6.19631 14.912 6.18031 15.312C6.16431 15.712 6.14031 16.016 6.10831 16.224C6.36431 16.192 6.68431 16.176 7.06831 16.176C7.46831 16.16 7.74831 16.152 7.90831 16.152V18H1.02031Z" fill="black"/>
</svg>
